<?xml version="1.0" encoding="utf-8" ?>
<svg xmlns="http://www.w3.org/2000/svg" width="1024" height="1024"
     viewBox="0 0 1024 1024">
    <g transform="scale(1.9) translate(-240,-240)">
        <path fill="#F0F0F0"
              d="M553.41 269.209C556.371 268.846 560.566 268.821 563.61 268.813C618.625 268.665 679.424 290.529 710.736 337.866C744.829 389.501 721.487 445.747 671.997 476.306C621.538 507.463 569.031 509.79 512.67 497.597C504.742 495.874 496.315 493.032 488.439 491.704C457.383 486.466 421.088 492.578 397.87 515.248C390.908 522.047 386.518 528.949 381.62 537.098L380.469 524.306C375.89 468.736 384.666 402.768 414.274 354.358C444.593 304.785 495.331 273.937 553.41 269.209Z"/>
        <path fill="#C0C0C0"
              d="M318.315 576.497C349.199 588.742 411.631 588.368 442.34 576.093C442.855 583.688 443.582 591.266 444.52 598.82C445.9 609.939 447.561 628.22 456.667 635.007C461.774 638.793 468.195 640.352 474.47 639.331C480.007 638.428 484.883 636.077 488.961 632.353C499.129 623.068 495.972 611.4 502.039 601.122C503.596 598.485 507.396 596.613 510.544 596.294C520.463 595.288 535.468 604.829 543.012 610.383C550.588 615.961 565.726 630.919 566.566 640.817C567.709 654.304 551.859 653.727 544.731 658.972C536.668 664.906 529.72 672.491 523.355 679.962C509.28 697.195 494.439 715.286 475.808 727.807C446.127 747.754 407.905 759.13 372.275 752.245C348.132 747.579 325.777 733.519 312.261 712.911C297.988 691.15 294.582 662.086 300.983 637.117C303.48 627.378 307.9 617.621 310.841 607.809C314.042 597.13 316.058 587.384 318.315 576.497Z"/>
        <path fill="#C0C0C0"
              d="M713.734 509.436C719.516 510.445 722.479 516.838 723.912 521.967C727.359 534.298 727.008 548.793 720.846 560.236C719.697 562.371 717.586 564.859 715.061 565.334C708.022 566.522 708.608 557.022 708.561 552.684C704.321 552.5 700.074 552.491 695.833 552.657C677.822 553.307 661.169 555.885 644.401 561.103C612.062 571.165 590.046 593.245 570.409 619.475C570.265 619.625 570.121 619.775 569.976 619.926C568.756 618 567.348 616.434 565.885 614.689C554.272 602.64 548.982 598.933 534.747 590.376C540.938 582.756 547.779 575.688 555.193 569.253C599.007 530.679 651.76 518.903 708.849 522.577C708.899 516.365 707.614 512.467 713.734 509.436Z"/>
        <path fill="#C0C0C0"
              d="M361.986 546.71C379.719 545.41 428.572 546.188 445.791 556.332C446.702 557.073 447.193 557.929 447.327 559.09C448.006 565.005 434.752 567.532 430.688 568.442C419.8 570.88 408.085 572.204 396.927 572.576C382.892 573.805 366.857 573.011 352.772 572.129C344.477 571.61 312.32 567.335 310.496 559.582C313.232 549.718 352.517 547.366 361.986 546.71Z"/>
    </g>
</svg>