<svg xmlns="http://www.w3.org/2000/svg" viewBox="0 0 24 24" width="256" height="256" fill="none">
    <!-- Left bubble -->
    <path
            d="M3.7 7A3 3 0 0 1 6.7 4h4.9a3 3 0 0 1 3 3v2.9a3 3 0 0 1-3 3H7.8L5.6 14.7c-.4.3-.9 0-.9-.5v-1.3A3 3 0 0 1 3.7 9.9V7Z"
            stroke="#E0E0E0" stroke-width="2.0" stroke-linejoin="round"
    />

    <!-- Right bubble -->
    <g transform="translate(1.8,1.2)">
        <path
                d="M20.3 17A3 3 0 0 1 17.3 20h-4.9a3 3 0 0 1-3-3v-2.9a3 3 0 0 1 3-3h3.8l2.2-1.8c.4-.3.9 0 .9.5v1.3a3 3 0 0 1 1 2.1V17Z"
                stroke="#E0E0E0" stroke-width="2.0" stroke-linejoin="round"
        />
    </g>

</svg>
