<svg xmlns="http://www.w3.org/2000/svg" viewBox="0 0 13 13" fill="none">
    <g stroke="#CED0D6" stroke-width="1.15" stroke-linecap="round" stroke-linejoin="round">
        <path d="M2.4 2.2H5.8C6.74 2.2 7.5 2.96 7.5 3.9V5.85C7.5 6.79 6.74 7.55 5.8 7.55H3.6L2.1 8.75V7.68C1.35 7.54 0.8 6.88 0.8 6.1V3.9C0.8 2.96 1.56 2.2 2.4 2.2Z"/>
        <path d="M7.15 4.45H10.1C11.04 4.45 11.8 5.21 11.8 6.15V8.1C11.8 9.04 11.04 9.8 10.1 9.8H7.95L6.45 11V9.93C5.7 9.79 5.15 9.13 5.15 8.35V7.9"/>
    </g>
</svg>
